<svg width="618.134" height="618.071" viewBox="0 0 163.548 163.531" xmlns="http://www.w3.org/2000/svg">
  <path d="M100.817 67.095c-.315.014-1.502.114-2.645.2-14.298 1.058-28.795 6.348-40.676 14.84-3.932 2.803-7.034 5.433-10.494 8.893-19.887 19.902-28.08 48.382-21.86 76.047 2.545 11.352 7.978 22.775 15.183 31.954 11.31 14.426 26.807 24.591 44.193 28.995 7.077 1.801 12.953 2.53 20.373 2.53 7.32 0 12.71-.657 19.688-2.358 10.022-2.46 18.829-6.506 27.636-12.668 8.435-5.919 16.284-14.211 21.918-23.147 7.263-11.552 11.394-24.305 12.41-38.302.214-2.945.085-10.237-.23-13.24-.628-5.961-2.23-13.825-3.159-15.469-.372-.643-1.415-1.472-2.187-1.744-.272-.086-.873-.157-1.359-.157-2.144 0-3.946 1.787-3.946 3.889 0 .5.23 1.7.558 3.002 2.83 11.009 3.06 23.104.643 34.142-3.088 14.14-9.98 26.607-20.373 36.83-4.847 4.76-9.522 8.277-15.57 11.737-14.111 8.078-31.654 11.138-48.11 8.393-12.496-2.074-23.347-6.877-33.655-14.898-4.847-3.775-10.752-9.994-14.412-15.198-6.32-8.979-10.294-18.443-12.353-29.438-1.043-5.604-1.4-13.039-.915-19.087.744-9.178 3.046-17.7 6.949-25.777 1.801-3.76 2.916-5.72 5.075-8.965 4.404-6.662 10.237-12.896 16.685-17.843 7.563-5.819 16.542-10.236 25.62-12.61 4.905-1.287 8.822-1.93 13.797-2.287 18-1.287 35.5 3.889 49.755 14.74 1.058.8 2.173 1.673 2.473 1.945l.543.471-.214.6c-1.101 3.089-.286 6.935 2.03 9.623 1.187 1.372 3.331 2.66 5.147 3.088 1.244.3 3.403.3 4.66 0 3.19-.758 6.163-3.489 7.107-6.52 1.058-3.388.443-6.734-1.73-9.45-2.402-3.002-6.534-4.346-10.352-3.346l-.829.215-1.172-.972c-4.761-3.99-10.523-7.678-16.585-10.609-9.836-4.76-19.716-7.32-30.968-8.006-2.158-.129-7.263-.157-8.65-.043z" style="stroke-width:.142972;fill:#000000" transform="translate(-23.1 -67.023)"/>
  <g style="font-size:191.049px;line-height:1.25;font-family:'Dancing Script';-inkscape-font-specification:'Dancing Script';stroke-width:.995044;fill:#000000;fill-opacity:1">
    <path d="M93.412 200.659q-7.451 0-11.081-4.777-3.63-4.585-3.63-11.271 0-4.395 1.528-11.081 1.72-6.687 4.394-13.947 2.675-7.45 6.114-13.946 3.63-6.496 7.642-10.508 4.012-4.203 7.833-4.203 1.72 0 2.866 1.146 1.337.955 1.337 3.057 0 2.292-3.057 7.45-2.866 5.16-6.878 11.846-4.012 6.687-7.068 14.137-2.866 7.26-2.866 13.947 0 6.878 2.292 9.17 2.293 2.293 7.07 2.293 6.495 0 13.755-6.496 7.45-6.495 15.666-22.734l1.72 1.91q-5.541 16.43-16.049 25.218-10.317 8.789-21.588 8.789zm22.925-87.5q-3.056 0-5.54-1.53-2.293-1.528-2.293-4.775 0-4.012 4.586-6.878 4.776-3.057 9.361-3.057 2.866 0 4.585 1.337 1.72 1.338 1.72 4.586 0 3.63-4.012 7.068-3.821 3.248-8.407 3.248z" style="fill:#000000;fill-opacity:1" transform="translate(-23.1 -67.023)" aria-label="i"/>
  </g>
</svg>
