<svg width="956.171" height="411.654" xmlns="http://www.w3.org/2000/svg">
  <g fill="#ffffff">
    <g aria-label="imad" style="font-size:287.585px;line-height:1.25;font-family:'Dancing Script';-inkscape-font-specification:'Dancing Script';text-align:center;letter-spacing:4.49352px;text-anchor:middle;fill:#ffffff;stroke-width:1.49784">
      <path d="M140.19 271.977q-11.217 0-16.68-7.19-5.465-6.902-5.465-16.968 0-6.614 2.3-16.68 2.59-10.065 6.615-20.993 4.027-11.216 9.203-20.994 5.464-9.778 11.503-15.817 6.04-6.327 11.791-6.327 2.589 0 4.314 1.726 2.013 1.437 2.013 4.6 0 3.452-4.601 11.217-4.314 7.765-10.353 17.83-6.04 10.065-10.64 21.281-4.314 10.929-4.314 20.994 0 10.353 3.45 13.804 3.452 3.451 10.641 3.451 9.778 0 20.706-9.778 11.216-9.778 23.582-34.222l2.589 2.875q-8.34 24.733-24.158 37.962-15.53 13.229-32.497 13.229zm34.51-131.714q-4.602 0-8.34-2.301-3.452-2.3-3.452-7.19 0-6.039 6.903-10.353 7.19-4.601 14.091-4.601 4.314 0 6.902 2.013 2.589 2.013 2.589 6.902 0 5.464-6.04 10.64-5.751 4.89-12.654 4.89z" style="fill:#ffffff" transform="translate(62.919 41.29) scale(.9831)"/>
      <path d="M338.227 273.414q-10.065 0-14.667-6.326-4.6-6.04-4.6-14.667 0-7.19 2.012-14.38 2.3-7.19 4.314-14.091 2.3-6.902 2.3-12.366 0-5.752-2.588-8.053-2.588-2.3-5.751-2.3-7.19 0-15.818 11.215-8.34 11.216-21.856 31.635-4.601 6.902-7.765 14.091-3.163 6.903-6.039 12.654-2.3 0-5.752-.575-3.45-.575-6.327-2.013-2.588-1.15-2.588-3.163 0-2.014 2.588-9.49 2.876-7.766 6.327-17.831 3.739-10.353 6.327-20.706 2.876-10.64 2.876-18.118 0-4.889-1.726-7.765-1.437-3.163-5.464-3.163-6.327 0-15.242 7.765-8.915 7.477-18.405 19.843-9.49 12.366-18.118 27.32-8.34 14.667-13.516 29.334-2.589 0-6.327-.863-3.739-.862-6.327-2.3-2.876-1.438-2.876-2.876 0-1.726 3.163-10.066 2.876-8.627 6.902-20.418 3.74-12.079 6.615-24.445 3.163-12.366 3.163-21.856 1.726-2.013 5.464-4.027 3.74-2.013 7.765-2.013 4.026 0 5.752 2.013 2.013 2.014 2.013 5.465 0 3.738-2.3 12.94-2.014 8.916-5.177 19.844 5.752-9.202 12.941-18.693 7.477-9.778 15.53-17.83 8.052-8.052 16.105-12.941 8.34-5.177 16.104-5.177 8.915 0 12.079 6.615 3.45 6.326 3.45 15.242 0 7.19-1.725 15.242-1.438 7.764-3.45 14.666-2.014 6.615-3.74 10.641 6.04-10.928 13.23-20.994 7.477-10.353 16.104-16.68 8.628-6.614 18.406-6.614 9.203 0 12.654 5.464 3.738 5.464 3.738 12.941 0 7.478-2.588 16.393-2.588 8.915-5.464 17.255-2.588 8.34-2.588 14.38 0 3.738 1.725 6.901 2.013 2.876 6.902 2.876 8.052 0 14.954-7.19 7.19-7.477 13.23-17.83 6.039-10.64 10.352-20.418l3.451 4.026q-4.6 12.078-11.79 24.157-7.19 11.79-16.968 19.556-9.49 7.764-20.994 7.764z" style="fill:#ffffff" transform="translate(62.919 41.29) scale(.9831)"/>
      <path d="M397.362 278.016q-8.915 0-14.955-6.04-6.326-5.751-6.326-17.83 0-10.353 4.601-22.144 4.601-12.078 12.654-23.582 8.052-11.79 18.118-21.281 10.353-9.778 21.568-15.53 11.504-5.751 22.72-5.751 11.215 0 18.693 6.039 7.477 5.752 7.477 15.53 0 7.19-4.026 9.777-3.739 2.589-10.066 2.589.575-2.3.863-4.89.575-2.875.575-5.176 0-6.614-3.163-11.216-3.164-4.888-10.928-4.888-8.053 0-16.393 5.751-8.34 5.464-16.105 14.955-7.764 9.202-13.804 20.13-6.039 10.929-9.49 21.57-3.451 10.64-3.451 18.98 0 11.216 7.765 11.216 6.614 0 14.379-6.04 7.765-6.326 15.817-15.817 8.34-9.777 15.817-20.13 7.478-10.354 13.23-18.981 1.15-1.726 1.437-1.726 1.726.288 4.314 1.15 2.876.863 4.889 2.301 2.013 1.438 2.013 3.739 0 2.588-2.588 7.19-2.588 4.313-5.752 10.065-3.163 5.752-5.752 11.791-2.588 5.752-2.588 10.928 0 4.314 2.3 8.628 2.301 4.026 7.478 4.026 7.765 0 20.419-11.216 12.653-11.503 25.595-34.222l2.875 2.875q-6.039 15.53-15.53 27.321-9.49 11.791-20.418 18.405-10.64 6.615-20.993 6.615-10.641 0-15.818-6.327-4.888-6.327-4.888-13.804 0-1.726.287-3.739l.575-4.601q-12.366 16.68-22.719 25.02-10.065 8.34-20.706 8.34z" style="fill:#ffffff" transform="translate(62.919 41.29) scale(.9831)"/>
      <path d="M530.406 273.127q-4.889 0-10.065-2.588-4.89-2.301-8.053-7.765-3.45-5.464-3.45-13.804 0-9.49 4.6-21.282 4.602-11.79 12.367-23.294 7.765-11.79 17.83-21.569 10.066-10.065 20.994-15.817 10.928-6.04 21.569-6.04 6.039 0 9.202 2.301 3.451 2.014 3.451 6.615 0 1.15-.287 2.013 0 .863-.288 2.013-1.438-2.3-4.314-3.163-2.588-1.15-6.614-1.15-9.203 0-18.118 5.751-8.627 5.464-16.105 14.667-7.19 8.915-12.653 19.268-5.464 10.353-8.628 20.131-2.876 9.49-2.876 16.105 0 6.327 2.876 10.065 2.876 3.739 7.477 3.739 7.765 0 18.693-9.778 11.216-9.778 22.72-27.608 11.503-17.83 20.706-41.7 6.327-16.68 12.941-33.935 6.902-17.255 13.804-33.072 6.902-16.105 13.229-28.471 6.614-12.654 12.366-19.844 6.04-7.477 10.64-7.477 2.301 0 4.027 2.013 1.725 1.726 1.725 4.602 0 4.601-4.888 15.817-4.602 10.928-12.367 26.458-7.477 15.242-15.817 33.36-8.34 18.117-16.105 36.81-7.477 18.693-12.366 36.236-4.601 17.255-4.601 31.634 0 8.053.863 12.079.862 4.026 5.751 4.026 6.04 0 14.092-5.176 8.052-5.177 16.105-14.667 8.052-9.49 14.091-22.72l3.451 2.589q-5.464 14.667-14.954 26.458-9.49 11.503-20.418 18.118-10.641 6.902-20.419 6.902-10.64 0-14.954-7.19-4.027-6.902-4.027-14.38 0-4.888 1.438-12.94 1.438-8.053 4.026-17.83-9.202 15.241-19.555 27.607-10.353 12.079-20.419 18.98-9.778 6.903-18.693 6.903z" style="fill:#ffffff" transform="translate(62.919 41.29) scale(.9831)"/>
    </g>
    <path d="M239.166 306.748c-2.534-.134-4.833.941-6.276 2.808 0 0-6.952 7.107-10.569 10.503-15.692 14.12-33.596 24.834-53.257 32.018-20.422 7.443-41.808 10.5-63.72 9.344-21.91-1.156-42.849-6.595-62.382-15.995-18.796-9.213-35.623-21.76-49.593-37.443-14.12-15.692-24.834-33.596-32.018-53.257-7.443-20.422-10.5-41.808-9.344-63.72 1.156-21.911 6.595-42.85 15.996-62.383 9.063-18.804 21.61-35.63 37.294-49.6 15.692-14.12 33.596-24.834 53.256-32.018 20.422-7.443 41.809-10.5 63.72-9.344 21.912 1.156 42.85 6.595 62.383 15.995 13.697 6.702 26.256 15.137 37.528 25.298-.69 1.757-1.247 3.82-1.358 5.907-.534 10.136 7.232 18.766 17.367 19.301 10.136.535 18.767-7.231 19.302-17.367.534-10.136-7.231-18.766-17.367-19.301-2.534-.134-4.943.188-7.085 1.121-29.236-26.653-67.345-43.76-109.976-46.009C25.435 17.456-57.89 92.43-63.048 190.212c-5.158 97.782 69.817 181.106 167.599 186.264 54.704 2.886 104.75-19.287 139.305-56.626 1.412-1.27 2.409-3.161 2.511-5.099.071-4.181-3.176-7.79-7.2-8.003z" style="fill:#ffffff;stroke-width:1.49265" transform="translate(62.919 41.29) scale(.9831)"/>
  </g>
  <path d="M1437.268 701.949h-956.17V375.95h956.17z" fill="none" style="stroke-width:.983108" transform="translate(-481.097 -375.95)"/>
</svg>
