<svg xmlns="http://www.w3.org/2000/svg" version="1.1" xmlns:xlink="http://www.w3.org/1999/xlink" xmlns:svgjs="http://svgjs.com/svgjs" width="52.179" height="52.226"><svg xmlns="http://www.w3.org/2000/svg" id="SvgjsSvg1006" version="1.1" viewBox="0 0 52.179 52.226">
  <g id="SvgjsG1005" transform="translate(-49.737 -155.974)">
    <g id="SvgjsG1004" fill-opacity="1" stroke-dasharray="none" stroke-width="0" aria-label="./imad" font-size="50.8" letter-spacing=".794" style="line-height:0" word-spacing="79.375">
      <g id="SvgjsG1003" fill="#18c507">
        <path id="SvgjsPath1002" d="M79.422 156.222c-14.284-1.973-27.464 8.008-29.437 22.293-1.972 14.285 8.009 27.464 22.293 29.436 14.285 1.973 27.464-8.008 29.436-22.292.098-.727.165-1.457.202-2.189l-2.292-.316c-.033.732 1.967-5.497-.2 2.188-1.798 13.02-13.81 22.117-26.83 20.319-13.019-1.798-22.116-13.81-20.318-26.83 1.798-13.02 13.81-22.117 26.83-20.318a23.798 23.798 0 0 1 12.149 5.435l.368-2.665a26.11 26.11 0 0 0-12.2-5.06z"></path>
        <path id="SvgjsPath1001" d="M95.648 164.583a3.705 3.705 0 0 1-4.178 3.164 3.705 3.705 0 0 1-3.163-4.177 3.705 3.705 0 0 1 4.177-3.164 3.705 3.705 0 0 1 3.164 4.177z"></path>
      </g>
      <path id="SvgjsPath1000" fill="#111118" d="m77.545 200.75 4.165.072.43-24.685-15.643-.273-.06 3.403 11.48.2zm2.147-29.838c1.88.033 3.374-1.212 3.409-3.192.033-1.93-1.416-3.277-3.296-3.31-1.88-.032-3.375 1.262-3.409 3.193-.034 1.98 1.416 3.276 3.296 3.309z" font-family="Source Code Pro" font-size="50.8" letter-spacing=".794" style="line-height:1.55;-inkscape-font-specification:'Source Code Pro'" word-spacing="79.375"></path>
    </g>
  </g>
</svg><style>@media (prefers-color-scheme: light) { :root { filter: contrast(1) brightness(0.7); } }
</style></svg>