<svg xmlns="http://www.w3.org/2000/svg" id="svg5" version="1.1" viewBox="0 0 184.251 52.226">
  <g id="layer1" transform="translate(-8.594 -155.974)">
    <g id="text63" fill-opacity="1" stroke-width=".265" aria-label="./imad" font-size="50.8" letter-spacing=".794" style="line-height:0" word-spacing="79.375">
      <g id="g2425">
        <g id="g894" fill="#18c606" transform="matrix(1.06878 0 0 1.06878 -12.803 65.748)">
          <path id="path2538" d="M20.021 123.337q.033-1.88.96-2.625.928-.746 2.198-.724 1.32.023 2.222.801.951.779.919 2.658-.032 1.829-1.012 2.624-.928.797-2.249.774-1.27-.022-2.17-.85-.9-.83-.868-2.658z" style="line-height:1.55"/>
          <path id="path2535" d="m49.744 90.071-14.143 36.03-4.369-.076 14.144-36.03Z" style="line-height:1.55"/>
        </g>
        <g id="g1684" fill="#18c507" stroke-dasharray="none" stroke-width="0">
          <path id="path2532" d="M79.422 156.222c-14.284-1.973-27.464 8.008-29.437 22.293-1.972 14.285 8.009 27.464 22.293 29.436 14.285 1.973 27.464-8.008 29.436-22.292.098-.727.165-1.457.202-2.189l-2.292-.316c-.033.732 1.967-5.497-.2 2.188-1.798 13.02-13.81 22.117-26.83 20.319-13.019-1.798-22.116-13.81-20.318-26.83 1.798-13.02 13.81-22.117 26.83-20.318a23.798 23.798 0 0 1 12.149 5.435l.368-2.665a26.11 26.11 0 0 0-12.2-5.06z"/>
          <path id="path2529" d="M95.648 164.583a3.705 3.705 0 0 1-4.178 3.164 3.705 3.705 0 0 1-3.163-4.177 3.705 3.705 0 0 1 4.177-3.164 3.705 3.705 0 0 1 3.164 4.177z"/>
        </g>
      </g>
      <g id="g2417" fill="#fff" font-family="Source Code Pro">
        <path id="path2558" stroke-dasharray="none" stroke-width="0" d="m77.545 200.75 4.165.072.43-24.685-15.643-.273-.06 3.403 11.48.2zm2.147-29.838c1.88.033 3.374-1.212 3.409-3.192.033-1.93-1.416-3.277-3.296-3.31-1.88-.032-3.375 1.262-3.409 3.193-.034 1.98 1.416 3.276 3.296 3.309z" font-size="50.8" letter-spacing=".794" style="line-height:1.55;-inkscape-font-specification:'Source Code Pro'" word-spacing="79.375"/>
        <g id="g890" transform="translate(0 73.554)">
          <path id="path2555" d="m106.86 126.067 4.166.073.312-17.879c1.263-2.518 2.403-3.768 4.13-3.738 1.828.032 2.513 1.517 2.464 4.361l-.303 17.371 3.86.068.312-17.879c1.365-2.517 2.301-3.77 4.028-3.74 1.829.032 2.616 1.519 2.566 4.363l-.303 17.371 4.165.073.308-17.676c.086-4.927-1.898-7.654-5.352-7.714-2.845-.05-4.397 1.549-5.865 4.165-.662-2.857-2.16-4.306-4.598-4.348-2.845-.05-4.396 1.498-5.706 3.762l-.101-.002-.3-3.257-3.352-.059z" style="line-height:1.55;-inkscape-font-specification:'Source Code Pro'"/>
          <path id="path2552" d="M147.685 126.626c3.505 0 7.01-1.83 9.754-3.963h.152l.356 3.353h3.403v-15.138c0-6.147-3.25-10.16-10.007-10.16-4.318 0-8.484 1.93-10.973 3.556l1.626 2.844c2.286-1.422 5.435-2.946 8.636-2.946 4.775 0 6.451 2.845 6.553 6.198-12.75 1.016-17.882 3.708-17.882 9.245 0 4.42 3.76 7.01 8.382 7.01zm1.118-3.353c-2.845 0-5.436-1.169-5.436-3.963 0-3.25 3.251-5.334 13.818-6.197v6.502c-2.794 2.337-5.588 3.658-8.382 3.658z" style="line-height:1.55;-inkscape-font-specification:'Source Code Pro'"/>
          <path id="path2549" d="M180.216 126.866c3.048.053 6.025-1.673 8.093-3.72l.152.003.299 3.257 3.454.06.631-36.164-4.165-.073-.166 9.498.124 4.575-.153-.003c-2.097-2.069-4.363-3.277-7.309-3.328-5.84-.102-11.312 4.781-11.452 12.807-.143 8.228 4.042 12.975 10.492 13.088zm.925-3.49c-4.571-.08-7.201-3.682-7.098-9.574.098-5.638 3.618-9.387 7.885-9.312 2.133.037 4.252.887 6.45 3.008l-.214 12.292c-2.226 2.4-4.585 3.629-7.023 3.586z" style="line-height:1.55;-inkscape-font-specification:'Source Code Pro'"/>
        </g>
      </g>
    </g>
  </g>
</svg>
